<?xml version="1.0" encoding="UTF-8" standalone="no"?>
<svg
   height="40"
   width="40"
   version="1.1"
   id="svg44"
   xmlns="http://www.w3.org/2000/svg"
   xmlns:svg="http://www.w3.org/2000/svg">
  <defs
     id="defs48" />
  <path
     d="m 11.375,23.375 h 10.417 q 0.583,0 0.958,-0.396 0.375,-0.396 0.375,-1.021 0,-0.583 -0.396,-0.979 -0.396,-0.396 -0.979,-0.396 H 11.333 q -0.541,0 -0.937,0.396 Q 10,21.375 10,21.958 q 0,0.625 0.396,1.021 0.396,0.396 0.979,0.396 z m 0,-5.292 h 17.292 q 0.541,0 0.937,-0.395 Q 30,17.292 30,16.708 30,16.083 29.604,15.688 29.208,15.292 28.625,15.292 H 11.333 q -0.541,0 -0.937,0.396 Q 10,16.083 10,16.708 q 0,0.584 0.396,0.98 0.396,0.395 0.979,0.395 z m 0,-5.291 h 17.292 q 0.541,0 0.937,-0.396 Q 30,12 30,11.417 30,10.833 29.604,10.438 29.208,10.042 28.625,10.042 H 11.333 q -0.541,0 -0.937,0.396 Q 10,10.833 10,11.417 q 0,0.583 0.396,0.979 0.396,0.396 0.979,0.396 z M 3.333,33.333 V 6.125 Q 3.333,5 4.167,4.167 5,3.333 6.125,3.333 h 27.75 q 1.125,0 1.958,0.834 0.834,0.833 0.834,1.958 v 21.083 q 0,1.125 -0.834,1.959 Q 35,30 33.875,30 H 10 L 5.708,34.292 Q 5.042,34.958 4.188,34.604 3.333,34.25 3.333,33.333 Z"
     id="path42"
     style="fill:#6a6d6b;fill-opacity:1" />
</svg>
