<?xml version="1.0" encoding="UTF-8" standalone="no"?>
<svg
   height="40"
   width="40"
   version="1.1"
   id="svg44"
   sodipodi:docname="Chat2.svg"
   inkscape:export-filename="Cha2t.svg"
   inkscape:export-xdpi="96"
   inkscape:export-ydpi="96"
   inkscape:version="1.2.2 (b0a84865, 2022-12-01)"
   xmlns:inkscape="http://www.inkscape.org/namespaces/inkscape"
   xmlns:sodipodi="http://sodipodi.sourceforge.net/DTD/sodipodi-0.dtd"
   xmlns="http://www.w3.org/2000/svg"
   xmlns:svg="http://www.w3.org/2000/svg">
  <defs
     id="defs48" />
  <sodipodi:namedview
     id="namedview46"
     pagecolor="#ffffff"
     bordercolor="#000000"
     borderopacity="0.25"
     inkscape:showpageshadow="2"
     inkscape:pageopacity="0.0"
     inkscape:pagecheckerboard="0"
     inkscape:deskcolor="#d1d1d1"
     showgrid="false"
     inkscape:zoom="5.9"
     inkscape:cx="-15.508475"
     inkscape:cy="21.271186"
     inkscape:window-width="1346"
     inkscape:window-height="991"
     inkscape:window-x="178"
     inkscape:window-y="114"
     inkscape:window-maximized="0"
     inkscape:current-layer="svg44" />
  <path
     d="M11.375 23.375h10.417q.583 0 .958-.396t.375-1.021q0-.583-.396-.979t-.979-.396H11.333q-.541 0-.937.396t-.396.979q0 .625.396 1.021.396.396.979.396Zm0-5.292h17.292q.541 0 .937-.395.396-.396.396-.98 0-.625-.396-1.02-.396-.396-.979-.396H11.333q-.541 0-.937.396-.396.395-.396 1.02 0 .584.396.98.396.395.979.395Zm0-5.291h17.292q.541 0 .937-.396t.396-.979q0-.584-.396-.979-.396-.396-.979-.396H11.333q-.541 0-.937.396-.396.395-.396.979 0 .583.396.979t.979.396ZM3.333 33.333V6.125q0-1.125.834-1.958.833-.834 1.958-.834h27.75q1.125 0 1.958.834.834.833.834 1.958v21.083q0 1.125-.834 1.959Q35 30 33.875 30H10l-4.292 4.292q-.666.666-1.52.312-.855-.354-.855-1.271Z"
     id="path42"
     style="fill:#a172f7;fill-opacity:1" />
</svg>
