<?xml version="1.0" encoding="UTF-8" standalone="no"?>
<svg
   height="48"
   viewBox="0 -960 960 960"
   width="48"
   version="1.1"
   id="svg134"
   sodipodi:docname="cloud.svg"
   inkscape:version="1.2.2 (b0a84865, 2022-12-01)"
   xmlns:inkscape="http://www.inkscape.org/namespaces/inkscape"
   xmlns:sodipodi="http://sodipodi.sourceforge.net/DTD/sodipodi-0.dtd"
   xmlns="http://www.w3.org/2000/svg"
   xmlns:svg="http://www.w3.org/2000/svg">
  <defs
     id="defs138" />
  <sodipodi:namedview
     id="namedview136"
     pagecolor="#ffffff"
     bordercolor="#000000"
     borderopacity="0.25"
     inkscape:showpageshadow="2"
     inkscape:pageopacity="0.0"
     inkscape:pagecheckerboard="0"
     inkscape:deskcolor="#d1d1d1"
     showgrid="false"
     inkscape:zoom="4.9166667"
     inkscape:cx="24"
     inkscape:cy="24"
     inkscape:window-width="1309"
     inkscape:window-height="456"
     inkscape:window-x="0"
     inkscape:window-y="32"
     inkscape:window-maximized="0"
     inkscape:current-layer="svg134" />
  <path
     d="M251-160q-88 0-149.5-61.5T40-371q0-78 50-137t127-71q20-97 94-158.5T482-799q112 0 189 81.5T748-522v24q72-2 122 46.5T920-329q0 69-50 119t-119 50H251Zm0-60h500q45 0 77-32t32-77q0-45-32-77t-77-32h-63v-84q0-91-61-154t-149-63q-88 0-149.5 63T267-522h-19q-62 0-105 43.5T100-371q0 63 44 107t107 44Zm229-260Z"
     id="path132"
     style="fill:#a172f7;fill-opacity:1" />
</svg>
