<?xml version="1.0" encoding="UTF-8" standalone="no"?>
<svg
   height="40"
   width="40"
   version="1.1"
   id="svg5300"
   xmlns="http://www.w3.org/2000/svg"
   xmlns:svg="http://www.w3.org/2000/svg">
  <defs
     id="defs5304" />
  <path
     d="M 1.375,30 Q 0.792,30 0.396,29.604 0,29.208 0,28.625 v -0.958 q 0,-1.709 1.75,-2.75 1.75,-1.042 4.625,-1.042 0.542,0 1.021,0.042 0.479,0.041 0.937,0.125 -0.416,0.75 -0.625,1.562 Q 7.5,26.417 7.5,27.333 V 30 Z m 10,0 Q 10.792,30 10.396,29.604 10,29.208 10,28.625 v -1.292 q 0,-2.708 2.771,-4.395 2.771,-1.688 7.229,-1.688 4.5,0 7.25,1.688 2.75,1.687 2.75,4.395 v 1.292 q 0,0.583 -0.396,0.979 Q 29.208,30 28.625,30 Z M 32.5,30 v -2.667 q 0,-0.916 -0.208,-1.729 -0.209,-0.812 -0.625,-1.604 0.458,-0.042 0.937,-0.083 0.479,-0.042 1.021,-0.042 2.833,0 4.604,1.042 Q 40,25.958 40,27.667 v 0.958 q 0,0.583 -0.396,0.979 Q 39.208,30 38.625,30 Z M 6.375,22.5 q -1.25,0 -2.146,-0.896 -0.896,-0.896 -0.896,-2.146 0,-1.291 0.896,-2.187 0.896,-0.896 2.146,-0.896 1.292,0 2.187,0.896 0.896,0.896 0.896,2.187 0,1.25 -0.896,2.146 Q 7.667,22.5 6.375,22.5 Z m 27.25,0 q -1.292,0 -2.188,-0.896 -0.895,-0.896 -0.895,-2.146 0,-1.291 0.895,-2.187 0.896,-0.896 2.188,-0.896 1.25,0 2.146,0.896 0.896,0.896 0.896,2.187 0,1.25 -0.896,2.146 Q 34.875,22.5 33.625,22.5 Z M 20,20 Q 17.917,20 16.458,18.542 15,17.083 15,15 15,12.917 16.458,11.458 17.917,10 20,10 22.083,10 23.542,11.458 25,12.917 25,15 25,17.083 23.542,18.542 22.083,20 20,20 Z"
     id="path5298"
     style="fill:#a172f7;fill-opacity:1" />
</svg>
