<?xml version="1.0" encoding="UTF-8" standalone="no"?>
<svg
   height="40"
   width="40"
   version="1.1"
   id="svg5885"
   xmlns="http://www.w3.org/2000/svg"
   xmlns:svg="http://www.w3.org/2000/svg">
  <defs
     id="defs5889" />
  <path
     d="M 9.458,35 Q 8.292,35 7.479,34.188 6.667,33.375 6.667,32.208 V 16.375 q 0,-0.667 0.291,-1.25 0.292,-0.583 0.834,-0.958 L 18.333,6.25 Q 18.708,5.958 19.125,5.833 19.542,5.708 20,5.708 q 0.458,0 0.875,0.125 0.417,0.125 0.792,0.417 l 10.541,7.917 q 0.542,0.375 0.834,0.958 0.291,0.583 0.291,1.25 v 15.833 q 0,1.167 -0.812,1.98 Q 31.708,35 30.542,35 H 23.333 V 23.333 H 16.667 V 35 Z"
     id="path5883"
     style="fill:#6a6d6b;fill-opacity:1" />
</svg>
