<?xml version="1.0" encoding="UTF-8" standalone="no"?>
<svg
   height="48"
   viewBox="0 -960 960 960"
   width="48"
   version="1.1"
   id="svg134"
   sodipodi:docname="impaired.svg"
   inkscape:version="1.2.2 (b0a84865, 2022-12-01)"
   xmlns:inkscape="http://www.inkscape.org/namespaces/inkscape"
   xmlns:sodipodi="http://sodipodi.sourceforge.net/DTD/sodipodi-0.dtd"
   xmlns="http://www.w3.org/2000/svg"
   xmlns:svg="http://www.w3.org/2000/svg">
  <defs
     id="defs138" />
  <sodipodi:namedview
     id="namedview136"
     pagecolor="#ffffff"
     bordercolor="#000000"
     borderopacity="0.25"
     inkscape:showpageshadow="2"
     inkscape:pageopacity="0.0"
     inkscape:pagecheckerboard="0"
     inkscape:deskcolor="#d1d1d1"
     showgrid="false"
     inkscape:zoom="4.9166667"
     inkscape:cx="24"
     inkscape:cy="24"
     inkscape:window-width="1309"
     inkscape:window-height="456"
     inkscape:window-x="0"
     inkscape:window-y="32"
     inkscape:window-maximized="0"
     inkscape:current-layer="svg134" />
  <path
     d="m629-419-44-44q26-71-27-118t-115-24l-44-44q17-11 38-16t43-5q71 0 120.5 49.5T650-500q0 22-5.5 43.5T629-419Zm129 129-40-40q49-36 85.5-80.5T857-500q-50-111-150-175.5T490-740q-42 0-86 8t-69 19l-46-47q35-16 89.5-28T485-800q143 0 261.5 81.5T920-500q-26 64-67 117t-95 93Zm58 226L648-229q-35 14-79 21.5t-89 7.5q-146 0-265-81.5T40-500q20-52 55.5-101.5T182-696L56-822l42-43 757 757-39 44ZM223-654q-37 27-71.5 71T102-500q51 111 153.5 175.5T488-260q33 0 65-4t48-12l-64-64q-11 5-27 7.5t-30 2.5q-70 0-120-49t-50-121q0-15 2.5-30t7.5-27l-97-97Zm305 142Zm-116 58Z"
     id="path132"
     style="fill:#a172f7;fill-opacity:1" />
</svg>
