<?xml version="1.0" encoding="UTF-8" standalone="no"?>
<svg
   height="48"
   viewBox="0 -960 960 960"
   width="48"
   version="1.1"
   id="svg174"
   sodipodi:docname="moon.svg"
   inkscape:version="1.2.2 (b0a84865, 2022-12-01)"
   xmlns:inkscape="http://www.inkscape.org/namespaces/inkscape"
   xmlns:sodipodi="http://sodipodi.sourceforge.net/DTD/sodipodi-0.dtd"
   xmlns="http://www.w3.org/2000/svg"
   xmlns:svg="http://www.w3.org/2000/svg">
  <defs
     id="defs178" />
  <sodipodi:namedview
     id="namedview176"
     pagecolor="#ffffff"
     bordercolor="#000000"
     borderopacity="0.25"
     inkscape:showpageshadow="2"
     inkscape:pageopacity="0.0"
     inkscape:pagecheckerboard="0"
     inkscape:deskcolor="#d1d1d1"
     showgrid="false"
     inkscape:zoom="17.333333"
     inkscape:cx="23.971154"
     inkscape:cy="24"
     inkscape:window-width="1920"
     inkscape:window-height="1052"
     inkscape:window-x="1728"
     inkscape:window-y="0"
     inkscape:window-maximized="0"
     inkscape:current-layer="svg174" />
  <path
     d="M524-40q-84 0-157.5-32t-128-86.5Q184-213 152-286.5T120-444q0-146 93-257.5T450-840q-18 98 11 192.635 29 94.635 100 165.736 71 71.101 165.5 100.143Q821-352.445 920-370.471q-26 144.206-138 237.338Q670-40 524-40Zm0-60q100 0 182-57t132-145q-90-8-173-41.5T518.5-440Q455-503 422-585.5T381-757q-88 48-144.5 130.5T180-444q0 143.333 100.333 243.667Q380.667-100 524-100Zm-6-340Z"
     id="path172"
     style="fill:#a172f7;fill-opacity:1" />
</svg>
