<?xml version="1.0" encoding="UTF-8" standalone="no"?>
<svg
   height="48"
   width="48"
   version="1.1"
   id="svg32"
   xmlns="http://www.w3.org/2000/svg"
   xmlns:svg="http://www.w3.org/2000/svg">
  <defs
     id="defs36" />
  <path
     d="m 8,38 v -3 h 4.2 V 19.7 q 0,-4.2 2.475,-7.475 Q 17.15,8.95 21.2,8.1 V 6.65 Q 21.2,5.5 22.025,4.75 22.85,4 24,4 25.15,4 25.975,4.75 26.8,5.5 26.8,6.65 V 8.1 q 4.05,0.85 6.55,4.125 2.5,3.275 2.5,7.475 V 35 H 40 v 3 z m 16,6 Q 22.4,44 21.2,42.825 20,41.65 20,40 h 8 q 0,1.65 -1.175,2.825 Q 25.65,44 24,44 Z"
     id="path30"
     style="fill:#3e3e3e;fill-opacity:1" />
</svg>
