<?xml version="1.0" encoding="UTF-8" standalone="no"?>
<svg
   height="40"
   width="40"
   version="1.1"
   id="svg7979"
   sodipodi:docname="Person.svg"
   inkscape:export-filename="Person.svg"
   inkscape:export-xdpi="96"
   inkscape:export-ydpi="96"
   inkscape:version="1.2.2 (b0a84865, 2022-12-01)"
   xmlns:inkscape="http://www.inkscape.org/namespaces/inkscape"
   xmlns:sodipodi="http://sodipodi.sourceforge.net/DTD/sodipodi-0.dtd"
   xmlns="http://www.w3.org/2000/svg"
   xmlns:svg="http://www.w3.org/2000/svg">
  <defs
     id="defs7983" />
  <sodipodi:namedview
     id="namedview7981"
     pagecolor="#ffffff"
     bordercolor="#000000"
     borderopacity="0.25"
     inkscape:showpageshadow="2"
     inkscape:pageopacity="0.0"
     inkscape:pagecheckerboard="0"
     inkscape:deskcolor="#d1d1d1"
     showgrid="false"
     inkscape:zoom="5.9"
     inkscape:cx="-15.423729"
     inkscape:cy="20"
     inkscape:window-width="1309"
     inkscape:window-height="456"
     inkscape:window-x="136"
     inkscape:window-y="274"
     inkscape:window-maximized="0"
     inkscape:current-layer="svg7979" />
  <path
     d="m 20,19.958 q -2.75,0 -4.562,-1.812 -1.813,-1.813 -1.813,-4.563 0,-2.75 1.813,-4.562 Q 17.25,7.208 20,7.208 q 2.75,0 4.562,1.813 1.813,1.812 1.813,4.562 0,2.75 -1.813,4.563 Q 22.75,19.958 20,19.958 Z M 9.458,33.333 q -1.166,0 -1.979,-0.812 -0.812,-0.813 -0.812,-1.979 v -1.375 q 0,-1.542 0.77,-2.688 0.771,-1.146 2.021,-1.729 2.709,-1.25 5.313,-1.896 2.604,-0.646 5.229,-0.646 2.625,0 5.208,0.646 2.584,0.646 5.334,1.896 1.25,0.583 2.02,1.729 0.771,1.146 0.771,2.688 v 1.375 q 0,1.166 -0.812,1.979 -0.813,0.812 -1.979,0.812 z"
     id="path7977"
     style="fill:#a172f7;fill-opacity:1" />
</svg>
