<?xml version="1.0" encoding="UTF-8" standalone="no"?>
<svg
   height="48"
   viewBox="0 -960 960 960"
   width="48"
   version="1.1"
   id="svg134"
   sodipodi:docname="rain.svg"
   inkscape:version="1.2.2 (b0a84865, 2022-12-01)"
   xmlns:inkscape="http://www.inkscape.org/namespaces/inkscape"
   xmlns:sodipodi="http://sodipodi.sourceforge.net/DTD/sodipodi-0.dtd"
   xmlns="http://www.w3.org/2000/svg"
   xmlns:svg="http://www.w3.org/2000/svg">
  <defs
     id="defs138" />
  <sodipodi:namedview
     id="namedview136"
     pagecolor="#ffffff"
     bordercolor="#000000"
     borderopacity="0.25"
     inkscape:showpageshadow="2"
     inkscape:pageopacity="0.0"
     inkscape:pagecheckerboard="0"
     inkscape:deskcolor="#d1d1d1"
     showgrid="false"
     inkscape:zoom="4.9166667"
     inkscape:cx="24"
     inkscape:cy="24"
     inkscape:window-width="1309"
     inkscape:window-height="456"
     inkscape:window-x="0"
     inkscape:window-y="32"
     inkscape:window-maximized="0"
     inkscape:current-layer="svg134" />
  <path
     d="M558-83q-11 5-23.5 1T517-97l-69-138q-5-11-1.5-23.5T461-276q11-5 23.5-1t17.5 15l69 138q5 11 1.5 23.5T558-83Zm240-1q-11 5-23.5 1T757-98l-69-138q-5-11-1.5-23.5T701-277q11-5 23.5-1t17.5 15l69 138q5 11 1.5 23.5T798-84Zm-480 0q-11 5-23.5 1.5T277-97l-69-138q-5-11-1-23.5t15-17.5q11-5 23.5-1.5T263-263l69 139q5 11 1 23t-15 17Zm-28-256q-87 0-148.5-61.5T80-550q0-79 56.5-141T277-759q32-56 84.5-88.5T480-880q91 0 152.5 57.5T708-680q79 4 125.5 53.5T880-510q0 70-49.5 120T710-340H290Zm0-60h420q46 0 78-32.5t32-77.5q0-46-32-78t-78-32h-60v-30q0-71-49.5-120.5T480-820q-51 0-93.5 27.5T324-718l-8 18h-28q-62 2-105 45.5T140-550q0 62 44 106t106 44Zm190-210Z"
     id="path132"
     style="fill:#a172f7;fill-opacity:1" />
</svg>
