<?xml version="1.0" encoding="UTF-8" standalone="no"?>
<svg
   height="40"
   width="40"
   version="1.1"
   id="svg8517"
   xmlns="http://www.w3.org/2000/svg"
   xmlns:svg="http://www.w3.org/2000/svg">
  <defs
     id="defs8521" />
  <path
     d="M 32.625,33.583 22.042,23 q -1.25,1.083 -2.875,1.667 -1.625,0.583 -3.292,0.583 -4,0 -6.771,-2.75 -2.771,-2.75 -2.771,-6.708 0,-4 2.771,-6.75 2.771,-2.75 6.729,-2.75 3.959,0 6.75,2.75 2.792,2.75 2.792,6.708 0,1.75 -0.625,3.396 -0.625,1.646 -1.708,2.854 l 10.625,10.542 z m -16.75,-9.75 q 3.375,0 5.729,-2.333 2.354,-2.333 2.354,-5.75 0,-3.375 -2.354,-5.729 -2.354,-2.354 -5.729,-2.354 -3.417,0 -5.771,2.354 -2.354,2.354 -2.354,5.729 0,3.417 2.354,5.75 2.354,2.333 5.771,2.333 z"
     id="path8515"
     style="fill:#6a6d6b;fill-opacity:1" />
</svg>
