<?xml version="1.0" encoding="UTF-8" standalone="no"?>
<svg
   height="40"
   width="40"
   version="1.1"
   id="svg9055"
   sodipodi:docname="Settings.svg"
   inkscape:export-filename="Settings.svg"
   inkscape:export-xdpi="96"
   inkscape:export-ydpi="96"
   inkscape:version="1.2.2 (b0a84865, 2022-12-01)"
   xmlns:inkscape="http://www.inkscape.org/namespaces/inkscape"
   xmlns:sodipodi="http://sodipodi.sourceforge.net/DTD/sodipodi-0.dtd"
   xmlns="http://www.w3.org/2000/svg"
   xmlns:svg="http://www.w3.org/2000/svg">
  <defs
     id="defs9059" />
  <sodipodi:namedview
     id="namedview9057"
     pagecolor="#ffffff"
     bordercolor="#000000"
     borderopacity="0.25"
     inkscape:showpageshadow="2"
     inkscape:pageopacity="0.0"
     inkscape:pagecheckerboard="0"
     inkscape:deskcolor="#d1d1d1"
     showgrid="false"
     inkscape:zoom="5.9"
     inkscape:cx="-15.423729"
     inkscape:cy="20"
     inkscape:window-width="1309"
     inkscape:window-height="456"
     inkscape:window-x="0"
     inkscape:window-y="74"
     inkscape:window-maximized="0"
     inkscape:current-layer="svg9055" />
  <path
     d="m 22.875,36.667 h -5.75 q -0.5,0 -0.896,-0.334 Q 15.833,36 15.75,35.5 l -0.625,-4.125 q -0.708,-0.25 -1.437,-0.687 -0.73,-0.438 -1.355,-0.896 L 8.542,31.5 q -0.5,0.208 -1,0.042 -0.5,-0.167 -0.75,-0.625 L 3.917,25.875 Q 3.625,25.417 3.75,24.896 3.875,24.375 4.292,24.042 L 7.75,21.5 Q 7.667,21.167 7.646,20.75 7.625,20.333 7.625,20 7.625,19.667 7.646,19.25 7.667,18.833 7.75,18.5 L 4.292,15.958 Q 3.875,15.625 3.75,15.104 3.625,14.583 3.917,14.125 L 6.792,9.083 q 0.25,-0.5 0.75,-0.645 0.5,-0.146 1,0.062 l 3.791,1.708 Q 12.958,9.75 13.708,9.312 14.458,8.875 15.125,8.625 L 15.75,4.5 Q 15.833,4 16.229,3.667 16.625,3.333 17.125,3.333 h 5.75 q 0.5,0 0.896,0.334 Q 24.167,4 24.25,4.5 l 0.625,4.125 q 0.708,0.25 1.458,0.667 0.75,0.416 1.334,0.916 L 31.458,8.5 q 0.5,-0.208 1,-0.042 0.5,0.167 0.75,0.625 l 2.875,5.042 q 0.292,0.458 0.167,0.979 -0.125,0.521 -0.542,0.854 l -3.458,2.459 q 0.083,0.375 0.104,0.791 0.021,0.417 0.021,0.792 0,0.375 -0.021,0.771 -0.021,0.396 -0.104,0.771 l 3.417,2.5 q 0.416,0.333 0.541,0.854 0.125,0.521 -0.125,0.979 l -2.875,5 q -0.291,0.5 -0.791,0.667 -0.5,0.166 -1,-0.042 l -3.75,-1.708 q -0.625,0.458 -1.355,0.916 -0.729,0.459 -1.437,0.667 L 24.25,35.5 q -0.083,0.5 -0.479,0.833 -0.396,0.334 -0.896,0.334 z M 20.042,25.542 q 2.291,0 3.916,-1.625 1.625,-1.625 1.625,-3.917 0,-2.292 -1.625,-3.917 -1.625,-1.625 -3.916,-1.625 -2.334,0 -3.959,1.625 -1.625,1.625 -1.625,3.917 0,2.292 1.625,3.917 1.625,1.625 3.959,1.625 z"
     id="path9053"
     style="fill:#a172f7;fill-opacity:1" />
</svg>
