<?xml version="1.0" encoding="UTF-8" standalone="no"?>
<svg
   height="48"
   viewBox="0 -960 960 960"
   width="48"
   version="1.1"
   id="svg134"
   sodipodi:docname="snow.svg"
   inkscape:version="1.2.2 (b0a84865, 2022-12-01)"
   xmlns:inkscape="http://www.inkscape.org/namespaces/inkscape"
   xmlns:sodipodi="http://sodipodi.sourceforge.net/DTD/sodipodi-0.dtd"
   xmlns="http://www.w3.org/2000/svg"
   xmlns:svg="http://www.w3.org/2000/svg">
  <defs
     id="defs138" />
  <sodipodi:namedview
     id="namedview136"
     pagecolor="#ffffff"
     bordercolor="#000000"
     borderopacity="0.25"
     inkscape:showpageshadow="2"
     inkscape:pageopacity="0.0"
     inkscape:pagecheckerboard="0"
     inkscape:deskcolor="#d1d1d1"
     showgrid="false"
     inkscape:zoom="4.9166667"
     inkscape:cx="24"
     inkscape:cy="24"
     inkscape:window-width="1309"
     inkscape:window-height="456"
     inkscape:window-x="306"
     inkscape:window-y="404"
     inkscape:window-maximized="0"
     inkscape:current-layer="svg134" />
  <path
     d="M450-80v-195L301-126l-43-42 192-192v-90h-90L172-262l-44-41 147-147H80v-60h195L125-660l43-43 192 193h90v-91L262-789l42-44 146 147v-194h60v194l150-150 42 43-192 192v91h91l189-189 43 42-147 147h194v60H686l148 149-41 43-192-192h-91v90l192 193-41 43-151-151v195h-60Z"
     id="path132"
     style="fill:#a172f7;fill-opacity:1" />
</svg>
