<?xml version="1.0" encoding="UTF-8" standalone="no"?>
<svg
   height="40"
   width="40"
   version="1.1"
   id="svg9589"
   sodipodi:docname="Speed.svg"
   xmlns:inkscape="http://www.inkscape.org/namespaces/inkscape"
   xmlns:sodipodi="http://sodipodi.sourceforge.net/DTD/sodipodi-0.dtd"
   xmlns="http://www.w3.org/2000/svg"
   xmlns:svg="http://www.w3.org/2000/svg">
  <defs
     id="defs9593" />
  <sodipodi:namedview
     id="namedview9591"
     pagecolor="#ffffff"
     bordercolor="#000000"
     borderopacity="0.25"
     inkscape:showpageshadow="2"
     inkscape:pageopacity="0.0"
     inkscape:pagecheckerboard="0"
     inkscape:deskcolor="#d1d1d1"
     showgrid="false" />
  <path
     d="m 17.5,25.833 q 1,1 2.583,0.979 1.584,-0.02 2.334,-1.145 L 29.75,14.625 q 0.333,-0.5 -0.062,-0.896 -0.396,-0.396 -0.896,-0.062 L 17.75,21 q -1.125,0.75 -1.188,2.292 -0.062,1.541 0.938,2.541 z m -9.25,7.5 Q 7.5,33.333 6.771,32.958 6.042,32.583 5.667,31.875 4.583,29.917 4,27.854 3.417,25.792 3.417,23.458 q 0,-3.458 1.312,-6.52 1.313,-3.063 3.563,-5.334 2.25,-2.271 5.291,-3.583 3.042,-1.313 6.459,-1.313 3.416,0 6.416,1.313 3,1.312 5.271,3.583 2.271,2.271 3.583,5.334 1.313,3.062 1.313,6.52 0,2.334 -0.563,4.438 -0.562,2.104 -1.687,3.979 -0.458,0.917 -1.104,1.187 -0.646,0.271 -1.479,0.271 z"
     id="path9587"
     style="fill:#6a6d6b;fill-opacity:1" />
</svg>
