<?xml version="1.0" encoding="UTF-8" standalone="no"?>
<svg
   height="48"
   viewBox="0 -960 960 960"
   width="48"
   version="1.1"
   id="svg2047"
   sodipodi:docname="sun.svg"
   inkscape:version="1.2.2 (b0a84865, 2022-12-01)"
   xmlns:inkscape="http://www.inkscape.org/namespaces/inkscape"
   xmlns:sodipodi="http://sodipodi.sourceforge.net/DTD/sodipodi-0.dtd"
   xmlns="http://www.w3.org/2000/svg"
   xmlns:svg="http://www.w3.org/2000/svg">
  <defs
     id="defs2051" />
  <sodipodi:namedview
     id="namedview2049"
     pagecolor="#ffffff"
     bordercolor="#000000"
     borderopacity="0.25"
     inkscape:showpageshadow="2"
     inkscape:pageopacity="0.0"
     inkscape:pagecheckerboard="0"
     inkscape:deskcolor="#d1d1d1"
     showgrid="false"
     inkscape:zoom="4.9166667"
     inkscape:cx="24.101695"
     inkscape:cy="24"
     inkscape:window-width="1920"
     inkscape:window-height="1052"
     inkscape:window-x="1728"
     inkscape:window-y="0"
     inkscape:window-maximized="0"
     inkscape:current-layer="svg2047" />
  <path
     d="M450-770v-150h60v150h-60Zm256 106-42-42 106-107 42 43-106 106Zm64 214v-60h150v60H770ZM450-40v-150h60v150h-60ZM253-665 148-770l42-42 106 106-43 41Zm518 517L664-254l41-41 108 104-42 43ZM40-450v-60h150v60H40Zm151 302-43-42 105-105 22 20 22 21-106 106Zm289-92q-100 0-170-70t-70-170q0-100 70-170t170-70q100 0 170 70t70 170q0 100-70 170t-170 70Zm0-60q75 0 127.5-52.5T660-480q0-75-52.5-127.5T480-660q-75 0-127.5 52.5T300-480q0 75 52.5 127.5T480-300Zm0-180Z"
     id="path2045"
     style="fill:#a172f7;fill-opacity:1" />
</svg>
