<?xml version="1.0" encoding="UTF-8" standalone="no"?>
<svg
   height="40"
   width="40"
   version="1.1"
   id="svg10661"
   xmlns="http://www.w3.org/2000/svg"
   xmlns:svg="http://www.w3.org/2000/svg">
  <defs
     id="defs10665" />
  <path
     d="M 9.458,36.667 Q 8.333,36.667 7.5,35.833 6.667,35 6.667,33.875 V 6.125 Q 6.667,5 7.5,4.167 8.333,3.333 9.458,3.333 H 22.75 q 0.583,0 1.104,0.23 0.521,0.229 0.896,0.604 l 7.75,7.75 q 0.375,0.375 0.604,0.896 0.229,0.52 0.229,1.104 v 19.958 q 0,1.125 -0.833,1.958 -0.833,0.834 -1.958,0.834 z m 13.084,-24 q 0,0.583 0.396,0.979 0.395,0.396 0.979,0.396 h 6.625 l -8,-7.917 z M 18.125,25.833 15,22.708 q -0.167,-0.208 -0.417,-0.291 -0.25,-0.084 -0.479,-0.084 -0.229,0 -0.479,0.105 -0.25,0.104 -0.458,0.312 -0.375,0.375 -0.375,0.917 0,0.541 0.375,0.958 l 4,4 q 0.208,0.208 0.458,0.292 0.25,0.083 0.5,0.083 0.292,0 0.521,-0.083 0.229,-0.084 0.479,-0.292 L 26.708,21 q 0.375,-0.375 0.375,-0.938 0,-0.562 -0.375,-0.937 -0.375,-0.375 -0.937,-0.375 -0.563,0 -0.938,0.375 z"
     id="path10659"
     style="fill:#6a6d6b;fill-opacity:1" />
</svg>
